<svg width="311" height="230" viewBox="0 0 311 230" fill="none" xmlns="http://www.w3.org/2000/svg">
<g filter="url(#filter0_b_568_4564)">
<g clip-path="url(#clip0_568_4564)">
<rect width="311" height="230" rx="24" fill="white" fill-opacity="0.02"/>
<g clip-path="url(#clip1_568_4564)">
<path d="M165.076 231.959C169.616 231.069 175.668 224.041 175.49 221.105C175.223 221.639 168.014 220.304 168.281 219.859C167.658 222.528 160.448 226.888 156.176 226.176C156.354 226.265 159.736 229.379 160.181 229.468C160.448 229.824 164.631 232.137 165.076 231.959Z" fill="#13D3B7"/>
<path d="M210.026 60.9626C209.403 66.4786 208.869 71.9057 208.246 77.4217C208.335 76.7989 218.037 77.1548 218.126 76.3541C218.749 70.8381 219.283 65.411 219.906 59.895C219.817 60.5178 210.115 60.1619 210.026 60.9626Z" fill="#E05151"/>
<path d="M58.2695 264.165C67.2591 260.784 75.0027 255.357 81.3221 248.24C81.6781 247.795 81.7671 244.681 81.7671 244.414C82.0342 241.3 82.3902 238.186 82.6572 235.073C82.9242 231.959 83.1912 228.845 83.4583 225.731C83.4583 225.642 83.4583 222.172 83.7253 221.905C77.3168 229.023 69.5733 234.45 60.6727 237.831C59.6046 238.186 59.4266 249.93 59.3376 250.998C59.2486 251.976 59.0706 263.809 58.2695 264.165Z" fill="#FFC501"/>
<path d="M88.3528 -10.2116C87.9078 -10.6565 85.0596 -12.4358 84.9706 -13.0586C85.5936 -7.72052 81.3213 -4.33974 77.316 -1.75967C74.0228 0.375562 70.1066 1.71009 66.2793 0.642476L70.9966 5.62467C75.3579 8.02681 79.9862 6.51435 83.9915 4.11222C88.0858 1.62112 92.2691 -2.02656 91.646 -7.1867C91.646 -7.98742 88.8869 -9.76678 88.3528 -10.2116Z" fill="#FFC501"/>
<path d="M26.5901 157.106C30.795 156.558 33.3546 154.365 34.4515 150.162C35.7313 145.593 37.0111 141.756 41.9473 140.111C38.8393 141.207 35.1828 140.294 32.0748 141.39C28.2355 142.669 26.0416 145.593 25.1275 149.614C24.0305 153.634 22.7508 156.924 18.363 158.203C18.5458 158.203 18.7286 158.203 19.0943 158.02C18.7286 158.02 18.5458 158.02 18.1801 158.203C16.3519 158.385 19.6427 158.02 20.0084 158.02C22.0195 157.654 24.2134 157.472 26.5901 157.106Z" fill="#E05151"/>
<path d="M-9.2445 142.304C-5.40518 141.025 -1.93151 143.218 -1.93151 143.218C3.91888 146.324 8.48949 154.365 13.6086 157.472C17.0823 159.482 20.7387 159.117 24.3952 158.02C24.5781 158.02 25.675 157.837 27.6861 157.107C28.2346 156.924 28.783 156.741 29.3315 156.558C24.3952 156.01 20.9216 152.903 20.9216 152.903C17.0823 149.979 13.7914 145.411 10.1349 142.304C7.20972 139.746 3.73605 138.649 -0.103265 139.563C-0.103265 139.563 -0.10326 139.563 0.0795641 139.563C-0.10326 139.563 -0.103262 139.563 -0.286086 139.746C-0.468911 139.746 -0.468912 139.746 -0.651737 139.746C-3.39411 140.477 -7.0506 141.208 -9.79297 142.67C-9.61014 142.304 -9.42732 142.304 -9.2445 142.304Z" fill="#E05151"/>
<path d="M303.664 95.1601C300.46 101.833 294.852 104.413 294.852 104.413L289.334 99.2527C289.334 99.2527 294.852 96.7616 298.146 90L303.664 95.1601Z" fill="#1BBFCC"/>
<path d="M128.925 204.411C126.344 207.436 123.14 207.97 123.14 207.97L121.004 204.5C121.004 204.5 124.208 203.966 126.789 200.941L128.925 204.411Z" fill="#FF7F1F"/>
<path d="M50.6913 171.048C48.3771 167.578 48.6442 164.197 48.6442 164.197L52.7384 163.041C52.7384 163.041 52.3824 166.421 54.7856 169.891L50.6913 171.048Z" fill="#FFC501"/>
<path d="M160.6 46.6705C156.684 42.489 156.328 37.8627 156.328 37.8627L161.579 35.3716C161.579 35.3716 161.847 40.0869 165.852 44.1794L160.6 46.6705Z" fill="#1BBFCC"/>
<path d="M289.929 50.6746C284.144 48.8063 281.562 44.6248 281.562 44.6248L285.212 39.6426C285.212 39.6426 287.882 43.8241 293.578 45.6924L289.929 50.6746Z" fill="#FF7F1F"/>
<path d="M281.757 208.583C276.722 200.818 277.586 193.341 277.586 193.341L286.648 190.897C286.648 190.897 285.785 198.374 290.82 206.138L281.757 208.583Z" fill="#E05151"/>
<path d="M327.356 151.499C317.718 145.748 308.943 130.794 308.943 130.794L313.259 129.5C313.259 129.5 322.034 144.454 331.671 150.205L327.356 151.499Z" fill="#1BBFCC"/>
<path d="M306.277 15.1691C301.808 10.5778 301.436 5.36603 301.436 5.36603L304.415 3.87695C304.415 3.87695 304.787 9.08874 309.257 13.6801L306.277 15.1691Z" fill="#E05151"/>
<path d="M225.833 27.2062C221.488 31.6734 216.274 32.1698 216.274 32.1698L213.295 26.4616C213.295 26.4616 218.385 25.9653 222.854 21.498L225.833 27.2062Z" fill="#34C125"/>
<path d="M308.978 231.902C305.062 230.923 303.104 228.254 303.104 228.254L305.24 224.785C305.24 224.785 307.198 227.454 311.114 228.432L308.978 231.902Z" fill="#13D3B7"/>
<path d="M252.816 224.429C247.209 227.81 241.869 226.92 241.869 226.92L240.355 220.426C240.355 220.426 245.696 221.315 251.303 217.935L252.816 224.429Z" fill="#FF7F1F"/>
<path d="M227.182 200.23C219.794 198.717 215.967 193.824 215.967 193.824L217.836 190.176C217.836 190.176 221.663 195.069 229.051 196.582L227.182 200.23Z" fill="#1BBFCC"/>
<path d="M196.118 198.006C192.557 202.543 187.84 203.522 187.84 203.522L184.547 198.628C184.547 198.628 189.175 197.65 192.824 193.112L196.118 198.006Z" fill="#34C125"/>
<path d="M86.1352 149.181C82.931 152.651 70.7371 156.299 70.7371 156.299L68.334 152.117C68.334 152.117 80.5278 148.47 83.732 145L86.1352 149.181Z" fill="#FF7F1F"/>
<path d="M87.9757 87.5069C81.0332 88.5745 76.0488 85.5496 76.0488 85.5496L77.2059 78.4321C77.2059 78.4321 82.1902 81.457 89.1327 80.3894L87.9757 87.5069Z" fill="#E05151"/>
<path d="M65.368 24.073C59.2265 25.2296 54.8652 22.7385 54.8652 22.7385L55.6663 16.5107C55.6663 16.5107 60.1166 19.0018 66.169 17.8453L65.368 24.073Z" fill="#FFC501"/>
<path d="M155.264 198.806C148.589 198.895 125.625 194.891 125.625 194.891L127.583 191.956C127.583 191.956 150.547 195.959 157.222 195.87L155.264 198.806Z" fill="url(#paint0_linear_568_4564)"/>
<path d="M45.2661 61.6548C37.6115 60.1423 29.334 53.4698 29.334 53.4698L31.1141 50C31.1141 50 39.4807 56.6726 47.0462 58.1851L45.2661 61.6548Z" fill="url(#paint1_linear_568_4564)"/>
<path d="M110.454 48.4057C106.093 48.4057 103.334 46.1815 103.334 46.1815L104.669 42C104.669 42 107.428 44.3132 111.79 44.2242L110.454 48.4057Z" fill="url(#paint2_linear_568_4564)"/>
<path d="M249.255 148.717C247.297 145.158 247.92 141.867 247.92 141.867L252.015 141.066C252.015 141.066 251.392 144.358 253.35 147.916L249.255 148.717Z" fill="url(#paint3_linear_568_4564)"/>
<path d="M294.112 57.2577C288.594 52.3645 287.793 46.4037 287.793 46.4037L294.29 42.667C294.29 42.667 295.18 48.6279 300.61 53.5211L294.112 57.2577Z" fill="url(#paint4_linear_568_4564)"/>
<path d="M82.7761 195.305C79.3939 201.889 73.8755 204.202 73.8755 204.202L68.5352 198.864C68.5352 198.864 74.1425 196.462 77.4358 189.967L82.7761 195.305Z" fill="url(#paint5_linear_568_4564)"/>
<path d="M208.727 125.516C204.187 129.164 199.47 129.075 199.47 129.075L197.334 123.559C197.334 123.559 202.051 123.648 206.591 120L208.727 125.516Z" fill="url(#paint6_linear_568_4564)"/>
<path d="M144.313 66.4555C140.753 61.0285 141.376 55.6904 141.376 55.6904L147.784 54C147.784 54 147.161 59.2491 150.722 64.7651L144.313 66.4555Z" fill="url(#paint7_linear_568_4564)"/>
<path d="M110.048 121.848C104.173 118.823 102.037 113.841 102.037 113.841L106.754 109.126C106.754 109.126 108.891 114.108 114.765 117.133L110.048 121.848Z" fill="url(#paint8_linear_568_4564)"/>
<path d="M56.335 121.738C48.9475 121.382 44.4082 117.2 44.4082 117.2L47.0784 110.172C47.0784 110.172 51.5287 114.264 59.0052 114.709L56.335 121.738Z" fill="url(#paint9_linear_568_4564)"/>
<path d="M284.678 60.8168C280.762 67.9342 274.62 70.4253 274.62 70.4253L268.924 64.4645C268.924 64.4645 275.154 62.0624 278.982 54.856L284.678 60.8168Z" fill="url(#paint10_linear_568_4564)"/>
<path d="M30.6509 237.062C23.0854 235.55 19.0801 230.568 19.0801 230.568L22.9073 223.717C22.9073 223.717 26.9126 228.7 34.4781 230.212L30.6509 237.062Z" fill="url(#paint11_linear_568_4564)"/>
<path d="M126.955 241.778C120.636 237.685 118.855 231.724 118.855 231.724L124.819 226.92C124.819 226.92 126.599 232.792 132.918 236.973L126.955 241.778Z" fill="url(#paint12_linear_568_4564)"/>
<path d="M161.671 196.226C157.131 198.45 153.126 197.383 153.126 197.383L152.414 192.311C152.414 192.311 156.419 193.379 160.959 191.155L161.671 196.226Z" fill="url(#paint13_linear_568_4564)"/>
<path d="M66.793 34.7488C63.1437 29.4997 63.6778 24.3395 63.6778 24.3395L69.9082 22.4712C69.9082 22.4712 69.4632 27.6313 73.0234 32.8804L66.793 34.7488Z" fill="url(#paint14_linear_568_4564)"/>
<path d="M-6.07295 117.235C-10.2562 111.185 -9.6332 105.135 -9.6332 105.135L-2.42371 103C-2.42371 103 -2.95775 109.05 1.13653 115.1L-6.07295 117.235Z" fill="url(#paint15_linear_568_4564)"/>
<path d="M161.172 119.76C156.633 126.343 150.225 128.123 150.225 128.123L145.24 121.628C145.24 121.628 151.56 119.849 156.188 113.265L161.172 119.76Z" fill="url(#paint16_linear_568_4564)"/>
<path d="M132.743 20.9586C130.073 24.1615 126.78 24.7842 126.78 24.7842L124.555 21.2255C124.555 21.2255 127.848 20.6027 130.518 17.3999L132.743 20.9586Z" fill="url(#paint17_linear_568_4564)"/>
<path d="M254.593 39.6428C252.19 45.7816 244.446 53.8776 244.446 53.8776L241.865 51.1196C241.865 51.1196 249.609 43.0236 252.012 36.8848L254.593 39.6428Z" fill="url(#paint18_linear_568_4564)"/>
<path d="M203.683 41.6006C202.259 46.7607 198.61 49.2518 198.61 49.2518L194.07 46.2269C194.07 46.2269 197.72 43.7358 199.144 38.5757L203.683 41.6006Z" fill="url(#paint19_linear_568_4564)"/>
<path d="M287.257 198.005C284.854 204.144 277.11 212.24 277.11 212.24L274.529 209.482C274.529 209.482 282.273 201.386 284.676 195.247L287.257 198.005Z" fill="url(#paint20_linear_568_4564)"/>
<path d="M145.025 28.1654L151.256 31.1013L153.303 26.9198L146.984 23.9839L145.025 28.1654Z" fill="url(#paint21_linear_568_4564)"/>
<path d="M151.521 30.5671C147.516 30.0333 145.291 27.6312 145.291 27.6312L147.071 23.8945C147.071 23.8945 149.296 26.2967 153.302 26.8305L151.521 30.5671Z" fill="url(#paint22_linear_568_4564)"/>
<path d="M17.2159 87.6849C11.5195 90.265 6.62416 88.8415 6.62416 88.8415L5.91211 82.5247C5.91211 82.5247 10.8074 83.9482 16.5038 81.3682L17.2159 87.6849Z" fill="url(#paint23_linear_568_4564)"/>
<path d="M13.2996 18.8236C9.82833 25.7631 4.04293 28.2542 4.04293 28.2542L-1.56445 22.7382C-1.56445 22.7382 4.22095 20.2471 7.69218 13.3076L13.2996 18.8236Z" fill="url(#paint24_linear_568_4564)"/>
<path d="M39.8229 272.027C37.4197 268.023 34.8386 263.93 33.1474 259.571C32.4354 257.614 32.1684 255.567 32.7024 253.521C33.2364 251.564 34.3935 249.962 35.8176 248.628C36.4407 248.005 37.1527 247.471 37.9538 247.027C38.3988 246.938 38.8438 246.849 39.3779 246.76C40.5349 246.493 41.692 246.315 42.7601 246.137C48.5455 245.069 54.4199 243.468 59.5822 240.443C62.8755 238.486 65.8127 235.372 66.1687 231.457C66.1687 231.012 66.1687 230.567 66.1687 230.123C66.1687 229.856 62.4304 231.19 62.2524 231.279C61.3624 231.635 60.4723 231.991 59.5822 232.436C59.4932 232.436 58.5142 232.881 58.6032 233.148C58.9592 237.062 56.467 240.443 53.3518 242.489C53.2628 242.489 53.2628 242.578 53.1738 242.578C52.8178 242.667 52.4618 242.756 52.1947 242.845C50.0586 243.29 47.4774 244.269 45.2523 244.713C42.048 245.336 39.2889 245.781 36.2627 246.938C33.7705 247.916 31.3673 249.073 29.3202 250.763C26.116 253.254 24.2468 257.08 25.2259 261.083C25.7599 263.219 26.828 265.265 27.8961 267.222C29.0532 269.446 30.2992 271.671 31.6343 273.806C33.4144 276.742 36.0846 280.834 33.5035 284.037C31.3673 284.215 29.1422 284.037 27.006 284.037C22.3777 283.859 17.8384 283.681 13.2101 284.304C10.1839 284.749 7.33566 285.639 4.57647 286.706C1.81728 287.774 -1.03091 288.93 -3.16706 291.066C-6.37128 294.269 -7.08333 299.162 -7.17233 303.521C-7.26134 308.059 -6.72731 312.685 -7.97339 317.133C-9.13047 321.226 -11.9787 325.051 -15.6279 327.276C-15.8059 327.365 -15.8949 327.454 -16.0729 327.542C-15.9839 327.542 -16.874 327.987 -16.34 327.987C-15.7169 327.987 -15.0939 327.72 -14.5598 327.542C-12.7797 327.009 -10.9996 326.297 -9.39749 325.407C-5.57022 323.183 -2.54402 319.891 -0.941906 315.71C0.74921 311.439 0.482191 306.724 0.393185 302.276C0.30418 297.827 0.660204 292.934 3.5084 289.286C4.04244 288.575 4.66547 288.041 5.37752 287.507C7.06864 287.24 8.75976 287.062 10.4509 286.973C15.0792 286.795 19.6185 287.151 24.2468 287.151C26.472 287.151 28.6081 286.884 30.7443 286.35C32.8804 285.817 34.8386 284.927 36.8857 284.126C38.1318 283.592 39.3779 282.97 40.3569 282.08C43.3831 279.144 41.603 275.051 39.8229 272.027Z" fill="url(#paint25_linear_568_4564)"/>
<path d="M53.6189 242.133C53.2628 242.578 52.8178 243.023 52.3728 243.468C52.1948 243.646 52.1057 243.735 51.9277 243.913C54.5979 243.023 57.1791 241.955 59.4933 240.532C62.7865 238.574 65.7237 235.461 66.0797 231.546C66.0797 231.101 66.0797 230.656 66.0797 230.211C66.0797 229.945 62.3415 231.279 62.1634 231.368C61.2734 231.724 60.3833 232.08 59.4933 232.525C59.4042 232.525 58.4252 232.969 58.5142 233.236C58.9592 236.706 56.6451 240.087 53.6189 242.133Z" fill="url(#paint26_linear_568_4564)"/>
</g>
<g filter="url(#filter1_b_568_4564)">
<rect x="41" y="110" width="229" height="64" rx="15.1534" fill="white" fill-opacity="0.08"/>
<path d="M66.6691 138.448C66.7971 136.613 67.3945 135.035 68.4611 133.712C69.5278 132.368 70.9358 131.333 72.6851 130.608C74.4558 129.883 76.4611 129.52 78.7011 129.52C80.8345 129.52 82.7011 129.851 84.3011 130.512C85.9011 131.152 87.1491 132.059 88.0451 133.232C88.9411 134.405 89.3891 135.771 89.3891 137.328C89.3891 138.523 89.0798 139.632 88.4611 140.656C87.8425 141.68 86.8505 142.715 85.4851 143.76C84.1411 144.784 82.3491 145.893 80.1091 147.088L72.8451 151.088L72.4291 149.616H90.0611V154H67.0211V150.16L77.2931 144.144C78.9998 143.163 80.3331 142.32 81.2931 141.616C82.2531 140.891 82.9358 140.219 83.3411 139.6C83.7465 138.981 83.9491 138.32 83.9491 137.616C83.9491 136.869 83.7465 136.208 83.3411 135.632C82.9358 135.056 82.3278 134.608 81.5171 134.288C80.7278 133.968 79.7251 133.808 78.5091 133.808C77.0798 133.808 75.9065 134.021 74.9891 134.448C74.0718 134.853 73.3785 135.408 72.9091 136.112C72.4611 136.816 72.1945 137.595 72.1091 138.448H66.6691ZM95.8699 154.288C95.2939 154.288 94.7605 154.149 94.2699 153.872C93.8005 153.595 93.4272 153.221 93.1499 152.752C92.8725 152.261 92.7339 151.728 92.7339 151.152C92.7339 150.555 92.8725 150.021 93.1499 149.552C93.4272 149.061 93.8005 148.677 94.2699 148.4C94.7605 148.123 95.2939 147.984 95.8699 147.984C96.4672 147.984 97.0005 148.123 97.4699 148.4C97.9605 148.677 98.3445 149.061 98.6219 149.552C98.8992 150.021 99.0379 150.555 99.0379 151.152C99.0379 151.728 98.8992 152.261 98.6219 152.752C98.3445 153.221 97.9605 153.595 97.4699 153.872C97.0005 154.149 96.4672 154.288 95.8699 154.288ZM113.919 154.48C111.231 154.48 108.906 153.968 106.943 152.944C105.002 151.899 103.498 150.437 102.431 148.56C101.365 146.683 100.831 144.496 100.831 142C100.831 139.504 101.365 137.317 102.431 135.44C103.498 133.563 105.002 132.112 106.943 131.088C108.906 130.043 111.231 129.52 113.919 129.52C116.586 129.52 118.89 130.043 120.831 131.088C122.794 132.112 124.309 133.563 125.375 135.44C126.442 137.317 126.975 139.504 126.975 142C126.975 144.496 126.442 146.683 125.375 148.56C124.309 150.437 122.794 151.899 120.831 152.944C118.89 153.968 116.586 154.48 113.919 154.48ZM113.919 150.064C116.33 150.064 118.197 149.36 119.519 147.952C120.863 146.523 121.535 144.539 121.535 142C121.535 139.44 120.863 137.456 119.519 136.048C118.197 134.64 116.33 133.936 113.919 133.936C111.509 133.936 109.631 134.64 108.287 136.048C106.943 137.456 106.271 139.44 106.271 142C106.271 144.56 106.943 146.544 108.287 147.952C109.631 149.36 111.509 150.064 113.919 150.064ZM143.013 154.48C140.325 154.48 138 153.968 136.037 152.944C134.096 151.899 132.592 150.437 131.525 148.56C130.458 146.683 129.925 144.496 129.925 142C129.925 139.504 130.458 137.317 131.525 135.44C132.592 133.563 134.096 132.112 136.037 131.088C138 130.043 140.325 129.52 143.013 129.52C145.68 129.52 147.984 130.043 149.925 131.088C151.888 132.112 153.402 133.563 154.469 135.44C155.536 137.317 156.069 139.504 156.069 142C156.069 144.496 155.536 146.683 154.469 148.56C153.402 150.437 151.888 151.899 149.925 152.944C147.984 153.968 145.68 154.48 143.013 154.48ZM143.013 150.064C145.424 150.064 147.29 149.36 148.613 147.952C149.957 146.523 150.629 144.539 150.629 142C150.629 139.44 149.957 137.456 148.613 136.048C147.29 134.64 145.424 133.936 143.013 133.936C140.602 133.936 138.725 134.64 137.381 136.048C136.037 137.456 135.365 139.44 135.365 142C135.365 144.56 136.037 146.544 137.381 147.952C138.725 149.36 140.602 150.064 143.013 150.064ZM188.038 139.92V144.08H170.854V139.92H188.038ZM174.502 142L172.902 152.176L170.534 149.488H189.03V154H167.43L169.286 142L167.43 130H188.87V134.512H170.534L172.902 131.824L174.502 142ZM200.471 132.432H205.879V154H200.471V132.432ZM190.903 130H215.415V134.8H190.903V130ZM218.448 130H223.888V154H218.448V130ZM237.648 130H243.088V154H237.648V130ZM221.424 139.472H240.048V144.24H221.424V139.472Z" fill="white"/>
</g>
<path d="M90.192 87V76.864H94.952V87H90.192ZM80.308 66H85.6L93.692 76.22H91.396L99.488 66H104.78L94.084 79.524L91.032 79.552L80.308 66ZM111.181 87.42C109.202 87.42 107.466 87.0747 105.973 86.384C104.48 85.6747 103.313 84.6947 102.473 83.444C101.633 82.1747 101.213 80.7093 101.213 79.048C101.213 77.368 101.633 75.9027 102.473 74.652C103.313 73.3827 104.48 72.4027 105.973 71.712C107.466 71.0027 109.202 70.648 111.181 70.648C113.16 70.648 114.896 71.0027 116.389 71.712C117.882 72.4027 119.04 73.3827 119.861 74.652C120.701 75.9027 121.121 77.368 121.121 79.048C121.121 80.7093 120.701 82.1747 119.861 83.444C119.04 84.6947 117.882 85.6747 116.389 86.384C114.896 87.0747 113.16 87.42 111.181 87.42ZM111.181 83.864C112.264 83.864 113.188 83.668 113.953 83.276C114.737 82.884 115.334 82.3333 115.745 81.624C116.174 80.896 116.389 80.0373 116.389 79.048C116.389 78.04 116.174 77.1813 115.745 76.472C115.334 75.744 114.737 75.184 113.953 74.792C113.188 74.4 112.264 74.204 111.181 74.204C110.117 74.204 109.193 74.4 108.409 74.792C107.625 75.184 107.018 75.744 106.589 76.472C106.178 77.1813 105.973 78.04 105.973 79.048C105.973 80.0373 106.178 80.896 106.589 81.624C107.018 82.3333 107.625 82.884 108.409 83.276C109.193 83.668 110.117 83.864 111.181 83.864ZM130.594 87.42C129.119 87.42 127.859 87.1213 126.814 86.524C125.787 85.908 124.994 85.04 124.434 83.92C123.893 82.8 123.622 81.4747 123.622 79.944V71.068H128.298V79.244C128.298 80.6627 128.634 81.7453 129.306 82.492C129.978 83.22 130.93 83.584 132.162 83.584C133.077 83.584 133.851 83.3973 134.486 83.024C135.139 82.632 135.643 82.072 135.998 81.344C136.353 80.616 136.53 79.7667 136.53 78.796L138.042 79.608C137.855 81.2507 137.417 82.66 136.726 83.836C136.035 84.9933 135.158 85.88 134.094 86.496C133.049 87.112 131.882 87.42 130.594 87.42ZM137.51 87L136.53 80.952V71.068H141.206V81.652L142.186 87H137.51ZM172.579 84.452H171.039L176.023 71.068H180.699L174.539 87H169.751L164.431 73.252H166.111L160.707 87H155.919L149.759 71.068H154.491L159.503 84.452H157.907L163.003 71.068H167.567L172.579 84.452ZM191.162 87.42C189.183 87.42 187.447 87.0747 185.954 86.384C184.46 85.6747 183.294 84.6947 182.454 83.444C181.614 82.1747 181.194 80.7093 181.194 79.048C181.194 77.368 181.614 75.9027 182.454 74.652C183.294 73.3827 184.46 72.4027 185.954 71.712C187.447 71.0027 189.183 70.648 191.162 70.648C193.14 70.648 194.876 71.0027 196.37 71.712C197.863 72.4027 199.02 73.3827 199.842 74.652C200.682 75.9027 201.102 77.368 201.102 79.048C201.102 80.7093 200.682 82.1747 199.842 83.444C199.02 84.6947 197.863 85.6747 196.37 86.384C194.876 87.0747 193.14 87.42 191.162 87.42ZM191.162 83.864C192.244 83.864 193.168 83.668 193.934 83.276C194.718 82.884 195.315 82.3333 195.726 81.624C196.155 80.896 196.37 80.0373 196.37 79.048C196.37 78.04 196.155 77.1813 195.726 76.472C195.315 75.744 194.718 75.184 193.934 74.792C193.168 74.4 192.244 74.204 191.162 74.204C190.098 74.204 189.174 74.4 188.39 74.792C187.606 75.184 186.999 75.744 186.57 76.472C186.159 77.1813 185.954 78.04 185.954 79.048C185.954 80.0373 186.159 80.896 186.57 81.624C186.999 82.3333 187.606 82.884 188.39 83.276C189.174 83.668 190.098 83.864 191.162 83.864ZM203.016 71.068H207.692L208.7 77.144V87H204.024V76.444L203.016 71.068ZM214.776 70.648C216.288 70.648 217.576 70.956 218.64 71.572C219.704 72.1693 220.516 73.028 221.076 74.148C221.636 75.268 221.916 76.6027 221.916 78.152V87H217.24V78.852C217.24 77.4147 216.894 76.332 216.204 75.604C215.513 74.8573 214.505 74.484 213.18 74.484C212.284 74.484 211.49 74.6893 210.8 75.1C210.128 75.492 209.605 76.0427 209.232 76.752C208.877 77.4613 208.7 78.3107 208.7 79.3L207.16 78.488C207.346 76.808 207.794 75.3893 208.504 74.232C209.213 73.0747 210.109 72.188 211.192 71.572C212.274 70.956 213.469 70.648 214.776 70.648ZM225.237 66H230.109L229.325 80.084H226.021L225.237 66ZM227.673 87.252C226.871 87.252 226.217 87.0187 225.713 86.552C225.209 86.0667 224.957 85.4507 224.957 84.704C224.957 83.9387 225.209 83.3227 225.713 82.856C226.217 82.3707 226.871 82.128 227.673 82.128C228.476 82.128 229.129 82.3707 229.633 82.856C230.137 83.3227 230.389 83.9387 230.389 84.704C230.389 85.4507 230.137 86.0667 229.633 86.552C229.129 87.0187 228.476 87.252 227.673 87.252Z" fill="white"/>
</g>
<rect x="0.309288" y="0.309288" width="310.381" height="229.381" rx="23.6907" stroke="url(#paint27_linear_568_4564)" stroke-opacity="0.2" stroke-width="0.618575"/>
</g>
<defs>
<filter id="filter0_b_568_4564" x="-9.8972" y="-9.8972" width="330.794" height="249.794" filterUnits="userSpaceOnUse" color-interpolation-filters="sRGB">
<feFlood flood-opacity="0" result="BackgroundImageFix"/>
<feGaussianBlur in="BackgroundImageFix" stdDeviation="4.9486"/>
<feComposite in2="SourceAlpha" operator="in" result="effect1_backgroundBlur_568_4564"/>
<feBlend mode="normal" in="SourceGraphic" in2="effect1_backgroundBlur_568_4564" result="shape"/>
</filter>
<filter id="filter1_b_568_4564" x="17" y="86" width="277" height="112" filterUnits="userSpaceOnUse" color-interpolation-filters="sRGB">
<feFlood flood-opacity="0" result="BackgroundImageFix"/>
<feGaussianBlur in="BackgroundImageFix" stdDeviation="12"/>
<feComposite in2="SourceAlpha" operator="in" result="effect1_backgroundBlur_568_4564"/>
<feBlend mode="normal" in="SourceGraphic" in2="effect1_backgroundBlur_568_4564" result="shape"/>
</filter>
<linearGradient id="paint0_linear_568_4564" x1="125.627" y1="195.352" x2="157.204" y2="195.352" gradientUnits="userSpaceOnUse">
<stop stop-color="#F44274"/>
<stop offset="1" stop-color="#E51F9A"/>
</linearGradient>
<linearGradient id="paint1_linear_568_4564" x1="29.3561" y1="55.8274" x2="47.0954" y2="55.8274" gradientUnits="userSpaceOnUse">
<stop stop-color="#B4DF86"/>
<stop offset="1" stop-color="#84C743"/>
</linearGradient>
<linearGradient id="paint2_linear_568_4564" x1="103.379" y1="45.1329" x2="111.824" y2="45.1329" gradientUnits="userSpaceOnUse">
<stop stop-color="#F44274"/>
<stop offset="1" stop-color="#E51F9A"/>
</linearGradient>
<linearGradient id="paint3_linear_568_4564" x1="247.785" y1="144.874" x2="253.308" y2="144.874" gradientUnits="userSpaceOnUse">
<stop stop-color="#B5188D"/>
<stop offset="1" stop-color="#4E69AE"/>
</linearGradient>
<linearGradient id="paint4_linear_568_4564" x1="287.782" y1="49.9584" x2="300.609" y2="49.9584" gradientUnits="userSpaceOnUse">
<stop stop-color="#B4DF86"/>
<stop offset="1" stop-color="#84C743"/>
</linearGradient>
<linearGradient id="paint5_linear_568_4564" x1="68.5559" y1="197.123" x2="82.8071" y2="197.123" gradientUnits="userSpaceOnUse">
<stop stop-color="#F44274"/>
<stop offset="1" stop-color="#E51F9A"/>
</linearGradient>
<linearGradient id="paint6_linear_568_4564" x1="197.309" y1="124.525" x2="208.683" y2="124.525" gradientUnits="userSpaceOnUse">
<stop stop-color="#6DD0E7"/>
<stop offset="1" stop-color="#01A7DB"/>
</linearGradient>
<linearGradient id="paint7_linear_568_4564" x1="141.325" y1="60.1866" x2="150.646" y2="60.1866" gradientUnits="userSpaceOnUse">
<stop stop-color="#BE1E68"/>
<stop offset="1" stop-color="#B5188D"/>
</linearGradient>
<linearGradient id="paint8_linear_568_4564" x1="102.101" y1="115.466" x2="114.83" y2="115.466" gradientUnits="userSpaceOnUse">
<stop stop-color="#B5188D"/>
<stop offset="1" stop-color="#4E69AE"/>
</linearGradient>
<linearGradient id="paint9_linear_568_4564" x1="44.4609" y1="115.961" x2="59.0287" y2="115.961" gradientUnits="userSpaceOnUse">
<stop stop-color="#F8B54A"/>
<stop offset="1" stop-color="#F8A629"/>
</linearGradient>
<linearGradient id="paint10_linear_568_4564" x1="268.893" y1="62.6481" x2="284.654" y2="62.6481" gradientUnits="userSpaceOnUse">
<stop stop-color="#F8B54A"/>
<stop offset="1" stop-color="#F8A629"/>
</linearGradient>
<linearGradient id="paint11_linear_568_4564" x1="19.0908" y1="230.356" x2="34.5137" y2="230.356" gradientUnits="userSpaceOnUse">
<stop stop-color="#B4DF86"/>
<stop offset="1" stop-color="#84C743"/>
</linearGradient>
<linearGradient id="paint12_linear_568_4564" x1="118.928" y1="234.334" x2="132.942" y2="234.334" gradientUnits="userSpaceOnUse">
<stop stop-color="#FBE422"/>
<stop offset="1" stop-color="#C8D92B"/>
</linearGradient>
<linearGradient id="paint13_linear_568_4564" x1="152.382" y1="194.418" x2="161.645" y2="194.418" gradientUnits="userSpaceOnUse">
<stop stop-color="#F8B54A"/>
<stop offset="1" stop-color="#F8A629"/>
</linearGradient>
<linearGradient id="paint14_linear_568_4564" x1="63.651" y1="28.622" x2="73.0173" y2="28.622" gradientUnits="userSpaceOnUse">
<stop stop-color="#BE1E68"/>
<stop offset="1" stop-color="#B5188D"/>
</linearGradient>
<linearGradient id="paint15_linear_568_4564" x1="-9.70752" y1="110.122" x2="1.10556" y2="110.122" gradientUnits="userSpaceOnUse">
<stop stop-color="#FBE422"/>
<stop offset="1" stop-color="#C8D92B"/>
</linearGradient>
<linearGradient id="paint16_linear_568_4564" x1="145.354" y1="120.688" x2="161.202" y2="120.688" gradientUnits="userSpaceOnUse">
<stop stop-color="#B4DF86"/>
<stop offset="1" stop-color="#84C743"/>
</linearGradient>
<linearGradient id="paint17_linear_568_4564" x1="124.485" y1="21.0448" x2="132.702" y2="21.0448" gradientUnits="userSpaceOnUse">
<stop stop-color="#6DD0E7"/>
<stop offset="1" stop-color="#01A7DB"/>
</linearGradient>
<linearGradient id="paint18_linear_568_4564" x1="241.888" y1="45.3897" x2="254.619" y2="45.3897" gradientUnits="userSpaceOnUse">
<stop stop-color="#F71873"/>
<stop offset="1" stop-color="#F8A629"/>
</linearGradient>
<linearGradient id="paint19_linear_568_4564" x1="194.023" y1="43.8824" x2="203.65" y2="43.8824" gradientUnits="userSpaceOnUse">
<stop stop-color="#F71873"/>
<stop offset="1" stop-color="#C6211B"/>
</linearGradient>
<linearGradient id="paint20_linear_568_4564" x1="274.526" y1="203.725" x2="287.257" y2="203.725" gradientUnits="userSpaceOnUse">
<stop stop-color="#F71873"/>
<stop offset="1" stop-color="#F8A629"/>
</linearGradient>
<linearGradient id="paint21_linear_568_4564" x1="145.022" y1="27.5303" x2="153.266" y2="27.5303" gradientUnits="userSpaceOnUse">
<stop stop-color="#F71873"/>
<stop offset="1" stop-color="#F8A629"/>
</linearGradient>
<linearGradient id="paint22_linear_568_4564" x1="145.256" y1="27.2801" x2="153.264" y2="27.2801" gradientUnits="userSpaceOnUse">
<stop stop-color="#F71873"/>
<stop offset="1" stop-color="#F8A629"/>
</linearGradient>
<linearGradient id="paint23_linear_568_4564" x1="5.88977" y1="85.3254" x2="17.201" y2="85.3254" gradientUnits="userSpaceOnUse">
<stop stop-color="#6DD0E7"/>
<stop offset="1" stop-color="#01A7DB"/>
</linearGradient>
<linearGradient id="paint24_linear_568_4564" x1="-1.54817" y1="20.7867" x2="13.3276" y2="20.7867" gradientUnits="userSpaceOnUse">
<stop stop-color="#F8B54A"/>
<stop offset="1" stop-color="#F8A629"/>
</linearGradient>
<linearGradient id="paint25_linear_568_4564" x1="7.52436" y1="269.751" x2="38.2742" y2="286.239" gradientUnits="userSpaceOnUse">
<stop stop-color="#F71873"/>
<stop offset="1" stop-color="#C6211B"/>
</linearGradient>
<linearGradient id="paint26_linear_568_4564" x1="63.2309" y1="226.567" x2="55.3026" y2="248.677" gradientUnits="userSpaceOnUse">
<stop stop-color="#F44274"/>
<stop offset="1" stop-color="#E51F9A"/>
</linearGradient>
<linearGradient id="paint27_linear_568_4564" x1="33.3157" y1="-335.832" x2="385.757" y2="96.8414" gradientUnits="userSpaceOnUse">
<stop stop-color="white"/>
<stop offset="1" stop-color="white" stop-opacity="0"/>
</linearGradient>
<clipPath id="clip0_568_4564">
<rect width="311" height="230" rx="24" fill="white"/>
</clipPath>
<clipPath id="clip1_568_4564">
<rect width="597.544" height="576.512" fill="white" transform="translate(-104.666 -102)"/>
</clipPath>
</defs>
</svg>
