<svg width="390" height="256" viewBox="0 0 390 256" fill="none" xmlns="http://www.w3.org/2000/svg">
<g filter="url(#filter0_b_518_1804)">
<g clip-path="url(#clip0_518_1804)">
<rect x="0.666016" width="389.333" height="256" rx="24" fill="white" fill-opacity="0.02"/>
<g clip-path="url(#clip1_518_1804)">
<path d="M165.742 231.959C170.282 231.069 176.334 224.041 176.156 221.105C175.889 221.639 168.68 220.304 168.947 219.859C168.324 222.528 161.114 226.888 156.842 226.176C157.02 226.265 160.402 229.379 160.847 229.468C161.114 229.824 165.297 232.137 165.742 231.959Z" fill="#13D3B7"/>
<path d="M210.692 60.9626C210.069 66.4786 209.535 71.9057 208.912 77.4217C209.001 76.7989 218.703 77.1548 218.792 76.3541C219.415 70.8381 219.949 65.411 220.572 59.895C220.483 60.5178 210.781 60.1619 210.692 60.9626Z" fill="#E05151"/>
<path d="M396.838 227.196C397.194 226.573 391.409 219.367 390.964 218.744C390.608 218.21 384.644 210.826 384.911 210.381C379.749 218.121 372.806 223.815 364.262 227.552C365.419 227.018 374.764 244.989 376.189 244.367C384.822 240.719 391.676 234.936 396.838 227.196Z" fill="#FF7F1F"/>
<path d="M58.9355 264.165C67.9252 260.784 75.6687 255.357 81.9881 248.24C82.3441 247.795 82.4332 244.681 82.4332 244.414C82.7002 241.3 83.0562 238.186 83.3232 235.073C83.5902 231.959 83.8573 228.845 84.1243 225.731C84.1243 225.642 84.1243 222.172 84.3913 221.905C77.9829 229.023 70.2393 234.45 61.3387 237.831C60.2706 238.186 60.0926 249.93 60.0036 250.998C59.9146 251.976 59.7366 263.809 58.9355 264.165Z" fill="#FFC501"/>
<path d="M89.0188 -10.2116C88.5738 -10.6565 85.7256 -12.4358 85.6366 -13.0586C86.2596 -7.72052 81.9873 -4.33974 77.9821 -1.75967C74.6888 0.375562 70.7726 1.71009 66.9453 0.642476L71.6626 5.62467C76.0239 8.02681 80.6522 6.51435 84.6575 4.11222C88.7518 1.62112 92.9351 -2.02656 92.3121 -7.1867C92.3121 -7.98742 89.5529 -9.76678 89.0188 -10.2116Z" fill="#FFC501"/>
<path d="M27.2561 157.106C31.4611 156.558 34.0206 154.365 35.1175 150.162C36.3973 145.593 37.6771 141.756 42.6134 140.111C39.5053 141.207 35.8488 140.294 32.7408 141.39C28.9015 142.669 26.7076 145.593 25.7935 149.614C24.6965 153.634 23.4168 156.924 19.029 158.203C19.2118 158.203 19.3946 158.203 19.7603 158.02C19.3946 158.02 19.2118 158.02 18.8462 158.203C17.0179 158.385 20.3087 158.02 20.6744 158.02C22.6855 157.654 24.8794 157.472 27.2561 157.106Z" fill="#E05151"/>
<path d="M-8.57848 142.304C-4.73916 141.025 -1.2655 143.218 -1.2655 143.218C4.58489 146.324 9.15551 154.365 14.2746 157.472C17.7483 159.482 21.4048 159.117 25.0613 158.02C25.2441 158.02 26.341 157.837 28.3521 157.107C28.9006 156.924 29.449 156.741 29.9975 156.558C25.0613 156.01 21.5876 152.903 21.5876 152.903C17.7483 149.979 14.4574 145.411 10.8009 142.304C7.87574 139.746 4.40207 138.649 0.562751 139.563C0.562751 139.563 0.562756 139.563 0.74558 139.563C0.562756 139.563 0.562754 139.563 0.37993 139.746C0.197104 139.746 0.197104 139.746 0.0142784 139.746C-2.72809 140.477 -6.38458 141.208 -9.12695 142.67C-8.94413 142.304 -8.76131 142.304 -8.57848 142.304Z" fill="#E05151"/>
<path d="M334.222 68.0234C333.243 78.6106 339.118 88.575 350.778 87.5073C359.589 86.7066 368.846 85.4611 372.317 75.8526C371.961 76.8312 365.375 75.5856 365.019 76.5643C363.773 79.9451 361.636 82.5251 358.699 84.5714C357.275 85.5501 355.584 86.2618 353.893 86.7956C352.202 87.2404 352.558 87.2404 354.872 86.7956C353.715 86.7956 352.558 86.5287 351.49 86.1728C343.39 84.0376 340.987 74.4291 341.61 67.2227C341.521 67.7565 334.311 67.4896 334.222 68.0234Z" fill="#15A8B2"/>
<path d="M304.33 95.1601C301.126 101.833 295.518 104.413 295.518 104.413L290 99.2527C290 99.2527 295.518 96.7616 298.812 90L304.33 95.1601Z" fill="#1BBFCC"/>
<path d="M129.591 204.411C127.01 207.436 123.806 207.97 123.806 207.97L121.67 204.5C121.67 204.5 124.874 203.966 127.455 200.941L129.591 204.411Z" fill="#FF7F1F"/>
<path d="M51.3573 171.048C49.0431 167.578 49.3102 164.197 49.3102 164.197L53.4045 163.041C53.4045 163.041 53.0484 166.421 55.4516 169.891L51.3573 171.048Z" fill="#FFC501"/>
<path d="M161.266 46.6705C157.35 42.489 156.994 37.8627 156.994 37.8627L162.245 35.3716C162.245 35.3716 162.513 40.0869 166.518 44.1794L161.266 46.6705Z" fill="#1BBFCC"/>
<path d="M290.595 50.6746C284.81 48.8063 282.229 44.6248 282.229 44.6248L285.878 39.6426C285.878 39.6426 288.548 43.8241 294.244 45.6924L290.595 50.6746Z" fill="#FF7F1F"/>
<path d="M261.565 249.274C249.482 252.15 246.893 246.686 246.893 246.686L247.324 242.229C247.324 242.229 249.913 247.692 261.997 244.817L261.565 249.274Z" fill="#34C125"/>
<path d="M282.423 208.583C277.388 200.818 278.252 193.341 278.252 193.341L287.314 190.897C287.314 190.897 286.451 198.374 291.486 206.138L282.423 208.583Z" fill="#E05151"/>
<path d="M328.022 151.499C318.384 145.748 309.609 130.794 309.609 130.794L313.925 129.5C313.925 129.5 322.7 144.454 332.337 150.205L328.022 151.499Z" fill="#1BBFCC"/>
<path d="M321.14 258.631C323.487 263.866 318.612 268.559 315.181 271.989C311.388 275.96 308.319 279.57 309.763 284.804C309.041 283.18 308.138 281.916 307.235 279.931C304.707 274.877 307.055 270.364 310.666 266.393C314.097 262.783 320.237 257.909 317.889 252.133C318.431 253.758 320.237 256.646 321.14 258.631Z" fill="#34C125"/>
<path d="M282.496 237.151C290.983 238.415 299.29 240.4 307.236 243.469C310.305 244.552 314.278 245.996 316.084 249.065C317.709 251.772 319.696 254.66 320.599 257.548C319.876 255.202 317.709 253.216 316.806 250.87C316.626 250.328 316.445 249.967 316.265 249.426C317.348 251.411 318.612 253.577 319.696 255.563C319.515 255.382 319.515 255.202 319.334 254.841C319.334 255.021 319.515 255.202 319.515 255.202C316.265 250.689 309.764 249.245 304.888 247.621C298.748 245.635 292.428 244.371 286.108 243.469C285.566 243.469 284.482 240.581 284.302 240.22C284.121 240.22 282.857 237.332 282.496 237.151Z" fill="#34C125"/>
<path d="M306.943 15.1691C302.474 10.5778 302.102 5.36603 302.102 5.36603L305.081 3.87695C305.081 3.87695 305.453 9.08874 309.923 13.6801L306.943 15.1691Z" fill="#E05151"/>
<path d="M226.499 27.2062C222.154 31.6734 216.94 32.1698 216.94 32.1698L213.961 26.4616C213.961 26.4616 219.051 25.9653 223.52 21.498L226.499 27.2062Z" fill="#34C125"/>
<path d="M342.219 185.638C339.193 182.08 339.104 178.254 339.104 178.254L343.465 176.386C343.465 176.386 343.554 180.211 346.58 183.77L342.219 185.638Z" fill="#FF7F1F"/>
<path d="M309.644 231.902C305.728 230.923 303.77 228.254 303.77 228.254L305.906 224.785C305.906 224.785 307.864 227.454 311.78 228.432L309.644 231.902Z" fill="#13D3B7"/>
<path d="M253.482 224.429C247.875 227.81 242.535 226.92 242.535 226.92L241.021 220.426C241.021 220.426 246.362 221.315 251.969 217.935L253.482 224.429Z" fill="#FF7F1F"/>
<path d="M227.848 200.23C220.46 198.717 216.633 193.824 216.633 193.824L218.502 190.176C218.502 190.176 222.329 195.069 229.717 196.582L227.848 200.23Z" fill="#1BBFCC"/>
<path d="M196.784 198.006C193.223 202.543 188.506 203.522 188.506 203.522L185.213 198.628C185.213 198.628 189.841 197.65 193.49 193.112L196.784 198.006Z" fill="#34C125"/>
<path d="M86.8012 149.181C83.597 152.651 71.4032 156.299 71.4032 156.299L69 152.117C69 152.117 81.1938 148.47 84.3981 145L86.8012 149.181Z" fill="#FF7F1F"/>
<path d="M88.6417 87.5069C81.6992 88.5745 76.7148 85.5496 76.7148 85.5496L77.8719 78.4321C77.8719 78.4321 82.8563 81.457 89.7987 80.3894L88.6417 87.5069Z" fill="#E05151"/>
<path d="M66.034 24.073C59.8925 25.2296 55.5312 22.7385 55.5312 22.7385L56.3323 16.5107C56.3323 16.5107 60.7826 19.0018 66.835 17.8453L66.034 24.073Z" fill="#FFC501"/>
<path d="M155.93 198.806C149.255 198.895 126.291 194.891 126.291 194.891L128.249 191.956C128.249 191.956 151.213 195.959 157.888 195.87L155.93 198.806Z" fill="url(#paint0_linear_518_1804)"/>
<path d="M45.9321 61.6548C38.2776 60.1423 30 53.4698 30 53.4698L31.7801 50C31.7801 50 40.1467 56.6726 47.7122 58.1851L45.9321 61.6548Z" fill="url(#paint1_linear_518_1804)"/>
<path d="M111.12 48.4057C106.759 48.4057 104 46.1815 104 46.1815L105.335 42C105.335 42 108.094 44.3132 112.456 44.2242L111.12 48.4057Z" fill="url(#paint2_linear_518_1804)"/>
<path d="M249.922 148.717C247.963 145.158 248.586 141.867 248.586 141.867L252.681 141.066C252.681 141.066 252.058 144.358 254.016 147.916L249.922 148.717Z" fill="url(#paint3_linear_518_1804)"/>
<path d="M336.859 109.968C329.471 107.744 326 102.406 326 102.406L330.45 96C330.45 96 333.922 101.338 341.309 103.562L336.859 109.968Z" fill="url(#paint4_linear_518_1804)"/>
<path d="M294.778 57.2577C289.26 52.3645 288.459 46.4037 288.459 46.4037L294.956 42.667C294.956 42.667 295.846 48.6279 301.276 53.5211L294.778 57.2577Z" fill="url(#paint5_linear_518_1804)"/>
<path d="M367.674 98.8952C363.758 99.6959 360.82 98.0945 360.82 98.0945L361.265 94.002C361.265 94.002 364.203 95.6034 368.119 94.8027L367.674 98.8952Z" fill="url(#paint6_linear_518_1804)"/>
<path d="M83.4422 195.305C80.0599 201.889 74.5415 204.202 74.5415 204.202L69.2012 198.864C69.2012 198.864 74.8086 196.462 78.1018 189.967L83.4422 195.305Z" fill="url(#paint7_linear_518_1804)"/>
<path d="M209.393 125.516C204.853 129.164 200.136 129.075 200.136 129.075L198 123.559C198 123.559 202.717 123.648 207.257 120L209.393 125.516Z" fill="url(#paint8_linear_518_1804)"/>
<path d="M144.979 66.4555C141.419 61.0285 142.042 55.6904 142.042 55.6904L148.45 54C148.45 54 147.827 59.2491 151.388 64.7651L144.979 66.4555Z" fill="url(#paint9_linear_518_1804)"/>
<path d="M361.889 49.4286C358.596 54.1439 354.056 55.3894 354.056 55.3894L350.496 50.7631C350.496 50.7631 355.035 49.5175 358.329 44.8022L361.889 49.4286Z" fill="url(#paint10_linear_518_1804)"/>
<path d="M110.714 121.848C104.839 118.823 102.703 113.841 102.703 113.841L107.42 109.126C107.42 109.126 109.557 114.108 115.431 117.133L110.714 121.848Z" fill="url(#paint11_linear_518_1804)"/>
<path d="M57.0011 121.738C49.6136 121.382 45.0742 117.2 45.0742 117.2L47.7444 110.172C47.7444 110.172 52.1947 114.264 59.6712 114.709L57.0011 121.738Z" fill="url(#paint12_linear_518_1804)"/>
<path d="M347.251 129.858C342.178 124.253 342 118.114 342 118.114L349.031 115C349.031 115 349.298 121.139 354.283 126.744L347.251 129.858Z" fill="url(#paint13_linear_518_1804)"/>
<path d="M285.344 60.8168C281.428 67.9342 275.286 70.4253 275.286 70.4253L269.59 64.4645C269.59 64.4645 275.82 62.0624 279.648 54.856L285.344 60.8168Z" fill="url(#paint14_linear_518_1804)"/>
<path d="M31.3169 237.062C23.7514 235.55 19.7461 230.568 19.7461 230.568L23.5734 223.717C23.5734 223.717 27.5786 228.7 35.1442 230.212L31.3169 237.062Z" fill="url(#paint15_linear_518_1804)"/>
<path d="M127.621 241.778C121.302 237.685 119.521 231.724 119.521 231.724L125.485 226.92C125.485 226.92 127.265 232.792 133.584 236.973L127.621 241.778Z" fill="url(#paint16_linear_518_1804)"/>
<path d="M162.337 196.226C157.797 198.45 153.792 197.383 153.792 197.383L153.08 192.311C153.08 192.311 157.085 193.379 161.625 191.155L162.337 196.226Z" fill="url(#paint17_linear_518_1804)"/>
<path d="M67.459 34.7488C63.8097 29.4997 64.3438 24.3395 64.3438 24.3395L70.5742 22.4712C70.5742 22.4712 70.1292 27.6313 73.6894 32.8804L67.459 34.7488Z" fill="url(#paint18_linear_518_1804)"/>
<path d="M-5.40694 117.235C-9.59022 111.185 -8.96718 105.135 -8.96718 105.135L-1.7577 103C-1.7577 103 -2.29173 109.05 1.80255 115.1L-5.40694 117.235Z" fill="url(#paint19_linear_518_1804)"/>
<path d="M161.838 119.76C157.299 126.343 150.891 128.123 150.891 128.123L145.906 121.628C145.906 121.628 152.226 119.849 156.854 113.265L161.838 119.76Z" fill="url(#paint20_linear_518_1804)"/>
<path d="M324.777 182.347C319.793 185.105 315.254 184.216 315.254 184.216L314.186 178.522C314.186 178.522 318.725 179.411 323.709 176.653L324.777 182.347Z" fill="url(#paint21_linear_518_1804)"/>
<path d="M327.446 261.173C319.435 262.33 303.236 257.081 303.236 257.081L304.66 248.985C304.66 248.985 320.86 254.234 328.87 253.077L327.446 261.173Z" fill="url(#paint22_linear_518_1804)"/>
<path d="M133.409 20.9586C130.739 24.1615 127.446 24.7842 127.446 24.7842L125.221 21.2255C125.221 21.2255 128.514 20.6027 131.184 17.3999L133.409 20.9586Z" fill="url(#paint23_linear_518_1804)"/>
<path d="M384.585 134.216C379.689 130.835 375.951 118.112 375.951 118.112L378.354 115.799C378.354 115.799 382.093 128.522 386.988 131.903L384.585 134.216Z" fill="url(#paint24_linear_518_1804)"/>
<path d="M356.281 25.2298C351.03 27.6319 346.401 26.4753 346.401 26.4753L345.689 20.6035C345.689 20.6035 350.318 21.849 355.569 19.3579L356.281 25.2298Z" fill="url(#paint25_linear_518_1804)"/>
<path d="M255.259 39.6428C252.856 45.7816 245.112 53.8776 245.112 53.8776L242.531 51.1196C242.531 51.1196 250.275 43.0236 252.678 36.8848L255.259 39.6428Z" fill="url(#paint26_linear_518_1804)"/>
<path d="M204.349 41.6006C202.925 46.7607 199.276 49.2518 199.276 49.2518L194.736 46.2269C194.736 46.2269 198.386 43.7358 199.81 38.5757L204.349 41.6006Z" fill="url(#paint27_linear_518_1804)"/>
<path d="M168.48 259.748C165.453 263.841 161.359 264.731 161.359 264.731L158.422 260.549C158.422 260.549 162.427 259.57 165.542 255.567L168.48 259.748Z" fill="url(#paint28_linear_518_1804)"/>
<path d="M287.923 198.005C285.52 204.144 277.777 212.24 277.777 212.24L275.195 209.482C275.195 209.482 282.939 201.386 285.342 195.247L287.923 198.005Z" fill="url(#paint29_linear_518_1804)"/>
<path d="M145.691 28.1654L151.922 31.1013L153.969 26.9198L147.65 23.9839L145.691 28.1654Z" fill="url(#paint30_linear_518_1804)"/>
<path d="M152.187 30.5671C148.182 30.0333 145.957 27.6312 145.957 27.6312L147.737 23.8945C147.737 23.8945 149.962 26.2967 153.968 26.8305L152.187 30.5671Z" fill="url(#paint31_linear_518_1804)"/>
<path d="M17.8819 87.6849C12.1855 90.265 7.29018 88.8415 7.29018 88.8415L6.57812 82.5247C6.57812 82.5247 11.4735 83.9482 17.1698 81.3682L17.8819 87.6849Z" fill="url(#paint32_linear_518_1804)"/>
<path d="M13.9656 18.8236C10.4943 25.7631 4.70894 28.2542 4.70894 28.2542L-0.898438 22.7382C-0.898438 22.7382 4.88696 20.2471 8.3582 13.3076L13.9656 18.8236Z" fill="url(#paint33_linear_518_1804)"/>
<path d="M40.4889 272.027C38.0857 268.023 35.5046 263.93 33.8135 259.571C33.1014 257.614 32.8344 255.567 33.3684 253.521C33.9025 251.564 35.0595 249.962 36.4836 248.628C37.1067 248.005 37.8187 247.471 38.6198 247.027C39.0648 246.938 39.5098 246.849 40.0439 246.76C41.201 246.493 42.358 246.315 43.4261 246.137C49.2115 245.069 55.0859 243.468 60.2483 240.443C63.5415 238.486 66.4787 235.372 66.8347 231.457C66.8347 231.012 66.8347 230.567 66.8347 230.123C66.8347 229.856 63.0965 231.19 62.9184 231.279C62.0284 231.635 61.1383 231.991 60.2483 232.436C60.1593 232.436 59.1802 232.881 59.2692 233.148C59.6252 237.062 57.133 240.443 54.0178 242.489C53.9288 242.489 53.9288 242.578 53.8398 242.578C53.4838 242.667 53.1278 242.756 52.8608 242.845C50.7246 243.29 48.1434 244.269 45.9183 244.713C42.7141 245.336 39.9549 245.781 36.9287 246.938C34.4365 247.916 32.0333 249.073 29.9862 250.763C26.782 253.254 24.9128 257.08 25.8919 261.083C26.4259 263.219 27.494 265.265 28.5621 267.222C29.7192 269.446 30.9652 271.671 32.3003 273.806C34.0805 276.742 36.7506 280.834 34.1695 284.037C32.0333 284.215 29.8082 284.037 27.672 284.037C23.0437 283.859 18.5044 283.681 13.8761 284.304C10.8499 284.749 8.00167 285.639 5.24249 286.706C2.4833 287.774 -0.364897 288.93 -2.50104 291.066C-5.70526 294.269 -6.41731 299.162 -6.50632 303.521C-6.59532 308.059 -6.06129 312.685 -7.30737 317.133C-8.46445 321.226 -11.3126 325.051 -14.9619 327.276C-15.1399 327.365 -15.2289 327.454 -15.4069 327.542C-15.3179 327.542 -16.208 327.987 -15.674 327.987C-15.0509 327.987 -14.4279 327.72 -13.8938 327.542C-12.1137 327.009 -10.3336 326.297 -8.73147 325.407C-4.90421 323.183 -1.878 319.891 -0.27589 315.71C1.41523 311.439 1.14821 306.724 1.0592 302.276C0.970196 297.827 1.32622 292.934 4.17442 289.286C4.70845 288.575 5.33149 288.041 6.04354 287.507C7.73465 287.24 9.42578 287.062 11.1169 286.973C15.7452 286.795 20.2845 287.151 24.9128 287.151C27.138 287.151 29.2741 286.884 31.4103 286.35C33.5464 285.817 35.5046 284.927 37.5517 284.126C38.7978 283.592 40.0439 282.97 41.0229 282.08C44.0491 279.144 42.269 275.051 40.4889 272.027Z" fill="url(#paint34_linear_518_1804)"/>
<path d="M54.2849 242.133C53.9288 242.578 53.4838 243.023 53.0388 243.468C52.8608 243.646 52.7718 243.735 52.5938 243.913C55.2639 243.023 57.8451 241.955 60.1593 240.532C63.4525 238.574 66.3897 235.461 66.7457 231.546C66.7457 231.101 66.7457 230.656 66.7457 230.211C66.7457 229.945 63.0075 231.279 62.8295 231.368C61.9394 231.724 61.0493 232.08 60.1593 232.525C60.0703 232.525 59.0912 232.969 59.1802 233.236C59.6252 236.706 57.3111 240.087 54.2849 242.133Z" fill="url(#paint35_linear_518_1804)"/>
<path d="M40.4869 272.026C38.0837 268.023 35.5025 263.93 33.8114 259.571C33.0994 257.613 32.8323 255.567 33.3664 253.521C33.9004 251.564 35.0575 249.962 36.4816 248.628C37.0156 248.094 37.5497 247.738 38.1727 247.293C37.1936 247.204 36.2146 247.293 35.2355 247.471C33.2774 248.361 31.4082 249.339 29.8061 250.585C26.6019 253.076 24.7328 256.902 25.7118 260.905C26.2459 263.041 27.314 265.087 28.382 267.044C29.5391 269.268 30.7852 271.492 32.1203 273.628C33.8114 276.386 36.3036 280.211 34.4345 283.325C34.7905 283.77 35.0575 284.393 34.8795 284.927C35.6805 284.571 36.5706 284.215 37.3717 283.859C38.6177 283.325 39.8638 282.702 40.8429 281.813C44.0471 279.144 42.267 275.051 40.4869 272.026Z" fill="url(#paint36_linear_518_1804)"/>
<path d="M332.517 17.5786C332.161 18.5573 325.575 17.3117 325.219 18.2904C323.973 21.6711 321.837 24.2512 318.9 26.2975C317.564 27.2761 315.962 27.8989 314.449 28.4327C314.894 28.5217 315.428 28.6106 315.962 28.6996C323.083 27.632 329.669 25.3188 332.517 17.5786Z" fill="url(#paint37_linear_518_1804)"/>
</g>
<g filter="url(#filter1_b_518_1804)">
<rect x="80" y="122" width="229" height="64" rx="15.1534" fill="white" fill-opacity="0.08"/>
<path d="M105.669 150.448C105.797 148.613 106.394 147.035 107.461 145.712C108.528 144.368 109.936 143.333 111.685 142.608C113.456 141.883 115.461 141.52 117.701 141.52C119.834 141.52 121.701 141.851 123.301 142.512C124.901 143.152 126.149 144.059 127.045 145.232C127.941 146.405 128.389 147.771 128.389 149.328C128.389 150.523 128.08 151.632 127.461 152.656C126.842 153.68 125.85 154.715 124.485 155.76C123.141 156.784 121.349 157.893 119.109 159.088L111.845 163.088L111.429 161.616H129.061V166H106.021V162.16L116.293 156.144C118 155.163 119.333 154.32 120.293 153.616C121.253 152.891 121.936 152.219 122.341 151.6C122.746 150.981 122.949 150.32 122.949 149.616C122.949 148.869 122.746 148.208 122.341 147.632C121.936 147.056 121.328 146.608 120.517 146.288C119.728 145.968 118.725 145.808 117.509 145.808C116.08 145.808 114.906 146.021 113.989 146.448C113.072 146.853 112.378 147.408 111.909 148.112C111.461 148.816 111.194 149.595 111.109 150.448H105.669ZM134.87 166.288C134.294 166.288 133.761 166.149 133.27 165.872C132.801 165.595 132.427 165.221 132.15 164.752C131.873 164.261 131.734 163.728 131.734 163.152C131.734 162.555 131.873 162.021 132.15 161.552C132.427 161.061 132.801 160.677 133.27 160.4C133.761 160.123 134.294 159.984 134.87 159.984C135.467 159.984 136.001 160.123 136.47 160.4C136.961 160.677 137.345 161.061 137.622 161.552C137.899 162.021 138.038 162.555 138.038 163.152C138.038 163.728 137.899 164.261 137.622 164.752C137.345 165.221 136.961 165.595 136.47 165.872C136.001 166.149 135.467 166.288 134.87 166.288ZM152.919 166.48C150.231 166.48 147.906 165.968 145.943 164.944C144.002 163.899 142.498 162.437 141.431 160.56C140.365 158.683 139.831 156.496 139.831 154C139.831 151.504 140.365 149.317 141.431 147.44C142.498 145.563 144.002 144.112 145.943 143.088C147.906 142.043 150.231 141.52 152.919 141.52C155.586 141.52 157.89 142.043 159.831 143.088C161.794 144.112 163.309 145.563 164.375 147.44C165.442 149.317 165.975 151.504 165.975 154C165.975 156.496 165.442 158.683 164.375 160.56C163.309 162.437 161.794 163.899 159.831 164.944C157.89 165.968 155.586 166.48 152.919 166.48ZM152.919 162.064C155.33 162.064 157.197 161.36 158.519 159.952C159.863 158.523 160.535 156.539 160.535 154C160.535 151.44 159.863 149.456 158.519 148.048C157.197 146.64 155.33 145.936 152.919 145.936C150.509 145.936 148.631 146.64 147.287 148.048C145.943 149.456 145.271 151.44 145.271 154C145.271 156.56 145.943 158.544 147.287 159.952C148.631 161.36 150.509 162.064 152.919 162.064ZM182.013 166.48C179.325 166.48 177 165.968 175.037 164.944C173.096 163.899 171.592 162.437 170.525 160.56C169.458 158.683 168.925 156.496 168.925 154C168.925 151.504 169.458 149.317 170.525 147.44C171.592 145.563 173.096 144.112 175.037 143.088C177 142.043 179.325 141.52 182.013 141.52C184.68 141.52 186.984 142.043 188.925 143.088C190.888 144.112 192.402 145.563 193.469 147.44C194.536 149.317 195.069 151.504 195.069 154C195.069 156.496 194.536 158.683 193.469 160.56C192.402 162.437 190.888 163.899 188.925 164.944C186.984 165.968 184.68 166.48 182.013 166.48ZM182.013 162.064C184.424 162.064 186.29 161.36 187.613 159.952C188.957 158.523 189.629 156.539 189.629 154C189.629 151.44 188.957 149.456 187.613 148.048C186.29 146.64 184.424 145.936 182.013 145.936C179.602 145.936 177.725 146.64 176.381 148.048C175.037 149.456 174.365 151.44 174.365 154C174.365 156.56 175.037 158.544 176.381 159.952C177.725 161.36 179.602 162.064 182.013 162.064ZM227.038 151.92V156.08H209.854V151.92H227.038ZM213.502 154L211.902 164.176L209.534 161.488H228.03V166H206.43L208.286 154L206.43 142H227.87V146.512H209.534L211.902 143.824L213.502 154ZM239.471 144.432H244.879V166H239.471V144.432ZM229.903 142H254.415V146.8H229.903V142ZM257.448 142H262.888V166H257.448V142ZM276.648 142H282.088V166H276.648V142ZM260.424 151.472H279.048V156.24H260.424V151.472Z" fill="white"/>
</g>
<path d="M129.192 99V88.864H133.952V99H129.192ZM119.308 78H124.6L132.692 88.22H130.396L138.488 78H143.78L133.084 91.524L130.032 91.552L119.308 78ZM150.181 99.42C148.202 99.42 146.466 99.0747 144.973 98.384C143.48 97.6747 142.313 96.6947 141.473 95.444C140.633 94.1747 140.213 92.7093 140.213 91.048C140.213 89.368 140.633 87.9027 141.473 86.652C142.313 85.3827 143.48 84.4027 144.973 83.712C146.466 83.0027 148.202 82.648 150.181 82.648C152.16 82.648 153.896 83.0027 155.389 83.712C156.882 84.4027 158.04 85.3827 158.861 86.652C159.701 87.9027 160.121 89.368 160.121 91.048C160.121 92.7093 159.701 94.1747 158.861 95.444C158.04 96.6947 156.882 97.6747 155.389 98.384C153.896 99.0747 152.16 99.42 150.181 99.42ZM150.181 95.864C151.264 95.864 152.188 95.668 152.953 95.276C153.737 94.884 154.334 94.3333 154.745 93.624C155.174 92.896 155.389 92.0373 155.389 91.048C155.389 90.04 155.174 89.1813 154.745 88.472C154.334 87.744 153.737 87.184 152.953 86.792C152.188 86.4 151.264 86.204 150.181 86.204C149.117 86.204 148.193 86.4 147.409 86.792C146.625 87.184 146.018 87.744 145.589 88.472C145.178 89.1813 144.973 90.04 144.973 91.048C144.973 92.0373 145.178 92.896 145.589 93.624C146.018 94.3333 146.625 94.884 147.409 95.276C148.193 95.668 149.117 95.864 150.181 95.864ZM169.594 99.42C168.119 99.42 166.859 99.1213 165.814 98.524C164.787 97.908 163.994 97.04 163.434 95.92C162.893 94.8 162.622 93.4747 162.622 91.944V83.068H167.298V91.244C167.298 92.6627 167.634 93.7453 168.306 94.492C168.978 95.22 169.93 95.584 171.162 95.584C172.077 95.584 172.851 95.3973 173.486 95.024C174.139 94.632 174.643 94.072 174.998 93.344C175.353 92.616 175.53 91.7667 175.53 90.796L177.042 91.608C176.855 93.2507 176.417 94.66 175.726 95.836C175.035 96.9933 174.158 97.88 173.094 98.496C172.049 99.112 170.882 99.42 169.594 99.42ZM176.51 99L175.53 92.952V83.068H180.206V93.652L181.186 99H176.51ZM211.579 96.452H210.039L215.023 83.068H219.699L213.539 99H208.751L203.431 85.252H205.111L199.707 99H194.919L188.759 83.068H193.491L198.503 96.452H196.907L202.003 83.068H206.567L211.579 96.452ZM230.162 99.42C228.183 99.42 226.447 99.0747 224.954 98.384C223.46 97.6747 222.294 96.6947 221.454 95.444C220.614 94.1747 220.194 92.7093 220.194 91.048C220.194 89.368 220.614 87.9027 221.454 86.652C222.294 85.3827 223.46 84.4027 224.954 83.712C226.447 83.0027 228.183 82.648 230.162 82.648C232.14 82.648 233.876 83.0027 235.37 83.712C236.863 84.4027 238.02 85.3827 238.842 86.652C239.682 87.9027 240.102 89.368 240.102 91.048C240.102 92.7093 239.682 94.1747 238.842 95.444C238.02 96.6947 236.863 97.6747 235.37 98.384C233.876 99.0747 232.14 99.42 230.162 99.42ZM230.162 95.864C231.244 95.864 232.168 95.668 232.934 95.276C233.718 94.884 234.315 94.3333 234.726 93.624C235.155 92.896 235.37 92.0373 235.37 91.048C235.37 90.04 235.155 89.1813 234.726 88.472C234.315 87.744 233.718 87.184 232.934 86.792C232.168 86.4 231.244 86.204 230.162 86.204C229.098 86.204 228.174 86.4 227.39 86.792C226.606 87.184 225.999 87.744 225.57 88.472C225.159 89.1813 224.954 90.04 224.954 91.048C224.954 92.0373 225.159 92.896 225.57 93.624C225.999 94.3333 226.606 94.884 227.39 95.276C228.174 95.668 229.098 95.864 230.162 95.864ZM242.016 83.068H246.692L247.7 89.144V99H243.024V88.444L242.016 83.068ZM253.776 82.648C255.288 82.648 256.576 82.956 257.64 83.572C258.704 84.1693 259.516 85.028 260.076 86.148C260.636 87.268 260.916 88.6027 260.916 90.152V99H256.24V90.852C256.24 89.4147 255.894 88.332 255.204 87.604C254.513 86.8573 253.505 86.484 252.18 86.484C251.284 86.484 250.49 86.6893 249.8 87.1C249.128 87.492 248.605 88.0427 248.232 88.752C247.877 89.4613 247.7 90.3107 247.7 91.3L246.16 90.488C246.346 88.808 246.794 87.3893 247.504 86.232C248.213 85.0747 249.109 84.188 250.192 83.572C251.274 82.956 252.469 82.648 253.776 82.648ZM264.237 78H269.109L268.325 92.084H265.021L264.237 78ZM266.673 99.252C265.871 99.252 265.217 99.0187 264.713 98.552C264.209 98.0667 263.957 97.4507 263.957 96.704C263.957 95.9387 264.209 95.3227 264.713 94.856C265.217 94.3707 265.871 94.128 266.673 94.128C267.476 94.128 268.129 94.3707 268.633 94.856C269.137 95.3227 269.389 95.9387 269.389 96.704C269.389 97.4507 269.137 98.0667 268.633 98.552C268.129 99.0187 267.476 99.252 266.673 99.252Z" fill="white"/>
</g>
<rect x="0.975303" y="0.309288" width="388.715" height="255.381" rx="23.6907" stroke="url(#paint38_linear_518_1804)" stroke-opacity="0.2" stroke-width="0.618575"/>
</g>
<defs>
<filter id="filter0_b_518_1804" x="-9.23119" y="-9.8972" width="409.128" height="275.794" filterUnits="userSpaceOnUse" color-interpolation-filters="sRGB">
<feFlood flood-opacity="0" result="BackgroundImageFix"/>
<feGaussianBlur in="BackgroundImageFix" stdDeviation="4.9486"/>
<feComposite in2="SourceAlpha" operator="in" result="effect1_backgroundBlur_518_1804"/>
<feBlend mode="normal" in="SourceGraphic" in2="effect1_backgroundBlur_518_1804" result="shape"/>
</filter>
<filter id="filter1_b_518_1804" x="56" y="98" width="277" height="112" filterUnits="userSpaceOnUse" color-interpolation-filters="sRGB">
<feFlood flood-opacity="0" result="BackgroundImageFix"/>
<feGaussianBlur in="BackgroundImageFix" stdDeviation="12"/>
<feComposite in2="SourceAlpha" operator="in" result="effect1_backgroundBlur_518_1804"/>
<feBlend mode="normal" in="SourceGraphic" in2="effect1_backgroundBlur_518_1804" result="shape"/>
</filter>
<linearGradient id="paint0_linear_518_1804" x1="126.294" y1="195.352" x2="157.87" y2="195.352" gradientUnits="userSpaceOnUse">
<stop stop-color="#F44274"/>
<stop offset="1" stop-color="#E51F9A"/>
</linearGradient>
<linearGradient id="paint1_linear_518_1804" x1="30.0221" y1="55.8274" x2="47.7614" y2="55.8274" gradientUnits="userSpaceOnUse">
<stop stop-color="#B4DF86"/>
<stop offset="1" stop-color="#84C743"/>
</linearGradient>
<linearGradient id="paint2_linear_518_1804" x1="104.045" y1="45.1329" x2="112.49" y2="45.1329" gradientUnits="userSpaceOnUse">
<stop stop-color="#F44274"/>
<stop offset="1" stop-color="#E51F9A"/>
</linearGradient>
<linearGradient id="paint3_linear_518_1804" x1="248.451" y1="144.874" x2="253.974" y2="144.874" gradientUnits="userSpaceOnUse">
<stop stop-color="#B5188D"/>
<stop offset="1" stop-color="#4E69AE"/>
</linearGradient>
<linearGradient id="paint4_linear_518_1804" x1="326.014" y1="103.002" x2="341.338" y2="103.002" gradientUnits="userSpaceOnUse">
<stop stop-color="#6DD0E7"/>
<stop offset="1" stop-color="#01A7DB"/>
</linearGradient>
<linearGradient id="paint5_linear_518_1804" x1="288.448" y1="49.9584" x2="301.275" y2="49.9584" gradientUnits="userSpaceOnUse">
<stop stop-color="#B4DF86"/>
<stop offset="1" stop-color="#84C743"/>
</linearGradient>
<linearGradient id="paint6_linear_518_1804" x1="360.824" y1="96.589" x2="368.149" y2="96.589" gradientUnits="userSpaceOnUse">
<stop stop-color="#BE1E68"/>
<stop offset="1" stop-color="#B5188D"/>
</linearGradient>
<linearGradient id="paint7_linear_518_1804" x1="69.2219" y1="197.123" x2="83.4731" y2="197.123" gradientUnits="userSpaceOnUse">
<stop stop-color="#F44274"/>
<stop offset="1" stop-color="#E51F9A"/>
</linearGradient>
<linearGradient id="paint8_linear_518_1804" x1="197.975" y1="124.525" x2="209.349" y2="124.525" gradientUnits="userSpaceOnUse">
<stop stop-color="#6DD0E7"/>
<stop offset="1" stop-color="#01A7DB"/>
</linearGradient>
<linearGradient id="paint9_linear_518_1804" x1="141.991" y1="60.1866" x2="151.312" y2="60.1866" gradientUnits="userSpaceOnUse">
<stop stop-color="#BE1E68"/>
<stop offset="1" stop-color="#B5188D"/>
</linearGradient>
<linearGradient id="paint10_linear_518_1804" x1="350.556" y1="50.0619" x2="361.913" y2="50.0619" gradientUnits="userSpaceOnUse">
<stop stop-color="#B5188D"/>
<stop offset="1" stop-color="#4E69AE"/>
</linearGradient>
<linearGradient id="paint11_linear_518_1804" x1="102.767" y1="115.466" x2="115.496" y2="115.466" gradientUnits="userSpaceOnUse">
<stop stop-color="#B5188D"/>
<stop offset="1" stop-color="#4E69AE"/>
</linearGradient>
<linearGradient id="paint12_linear_518_1804" x1="45.1269" y1="115.961" x2="59.6947" y2="115.961" gradientUnits="userSpaceOnUse">
<stop stop-color="#F8B54A"/>
<stop offset="1" stop-color="#F8A629"/>
</linearGradient>
<linearGradient id="paint13_linear_518_1804" x1="342.015" y1="122.408" x2="354.272" y2="122.408" gradientUnits="userSpaceOnUse">
<stop stop-color="#B4DF86"/>
<stop offset="1" stop-color="#84C743"/>
</linearGradient>
<linearGradient id="paint14_linear_518_1804" x1="269.559" y1="62.6481" x2="285.32" y2="62.6481" gradientUnits="userSpaceOnUse">
<stop stop-color="#F8B54A"/>
<stop offset="1" stop-color="#F8A629"/>
</linearGradient>
<linearGradient id="paint15_linear_518_1804" x1="19.7568" y1="230.356" x2="35.1797" y2="230.356" gradientUnits="userSpaceOnUse">
<stop stop-color="#B4DF86"/>
<stop offset="1" stop-color="#84C743"/>
</linearGradient>
<linearGradient id="paint16_linear_518_1804" x1="119.594" y1="234.334" x2="133.608" y2="234.334" gradientUnits="userSpaceOnUse">
<stop stop-color="#FBE422"/>
<stop offset="1" stop-color="#C8D92B"/>
</linearGradient>
<linearGradient id="paint17_linear_518_1804" x1="153.048" y1="194.418" x2="162.311" y2="194.418" gradientUnits="userSpaceOnUse">
<stop stop-color="#F8B54A"/>
<stop offset="1" stop-color="#F8A629"/>
</linearGradient>
<linearGradient id="paint18_linear_518_1804" x1="64.317" y1="28.622" x2="73.6833" y2="28.622" gradientUnits="userSpaceOnUse">
<stop stop-color="#BE1E68"/>
<stop offset="1" stop-color="#B5188D"/>
</linearGradient>
<linearGradient id="paint19_linear_518_1804" x1="-9.0415" y1="110.122" x2="1.77158" y2="110.122" gradientUnits="userSpaceOnUse">
<stop stop-color="#FBE422"/>
<stop offset="1" stop-color="#C8D92B"/>
</linearGradient>
<linearGradient id="paint20_linear_518_1804" x1="146.02" y1="120.688" x2="161.868" y2="120.688" gradientUnits="userSpaceOnUse">
<stop stop-color="#B4DF86"/>
<stop offset="1" stop-color="#84C743"/>
</linearGradient>
<linearGradient id="paint21_linear_518_1804" x1="314.12" y1="180.489" x2="324.741" y2="180.489" gradientUnits="userSpaceOnUse">
<stop stop-color="#B5188D"/>
<stop offset="1" stop-color="#4E69AE"/>
</linearGradient>
<linearGradient id="paint22_linear_518_1804" x1="303.232" y1="255.157" x2="328.883" y2="255.157" gradientUnits="userSpaceOnUse">
<stop stop-color="#6DD0E7"/>
<stop offset="1" stop-color="#01A7DB"/>
</linearGradient>
<linearGradient id="paint23_linear_518_1804" x1="125.151" y1="21.0448" x2="133.368" y2="21.0448" gradientUnits="userSpaceOnUse">
<stop stop-color="#6DD0E7"/>
<stop offset="1" stop-color="#01A7DB"/>
</linearGradient>
<linearGradient id="paint24_linear_518_1804" x1="375.983" y1="124.97" x2="387.012" y2="124.97" gradientUnits="userSpaceOnUse">
<stop stop-color="#FBE422"/>
<stop offset="1" stop-color="#C8D92B"/>
</linearGradient>
<linearGradient id="paint25_linear_518_1804" x1="345.669" y1="23.0924" x2="356.27" y2="23.0924" gradientUnits="userSpaceOnUse">
<stop stop-color="#6DD0E7"/>
<stop offset="1" stop-color="#01A7DB"/>
</linearGradient>
<linearGradient id="paint26_linear_518_1804" x1="242.554" y1="45.3897" x2="255.285" y2="45.3897" gradientUnits="userSpaceOnUse">
<stop stop-color="#F71873"/>
<stop offset="1" stop-color="#F8A629"/>
</linearGradient>
<linearGradient id="paint27_linear_518_1804" x1="194.689" y1="43.8824" x2="204.316" y2="43.8824" gradientUnits="userSpaceOnUse">
<stop stop-color="#F71873"/>
<stop offset="1" stop-color="#C6211B"/>
</linearGradient>
<linearGradient id="paint28_linear_518_1804" x1="158.397" y1="260.164" x2="168.452" y2="260.164" gradientUnits="userSpaceOnUse">
<stop stop-color="#B4DF86"/>
<stop offset="1" stop-color="#84C743"/>
</linearGradient>
<linearGradient id="paint29_linear_518_1804" x1="275.192" y1="203.725" x2="287.923" y2="203.725" gradientUnits="userSpaceOnUse">
<stop stop-color="#F71873"/>
<stop offset="1" stop-color="#F8A629"/>
</linearGradient>
<linearGradient id="paint30_linear_518_1804" x1="145.688" y1="27.5303" x2="153.932" y2="27.5303" gradientUnits="userSpaceOnUse">
<stop stop-color="#F71873"/>
<stop offset="1" stop-color="#F8A629"/>
</linearGradient>
<linearGradient id="paint31_linear_518_1804" x1="145.922" y1="27.2801" x2="153.93" y2="27.2801" gradientUnits="userSpaceOnUse">
<stop stop-color="#F71873"/>
<stop offset="1" stop-color="#F8A629"/>
</linearGradient>
<linearGradient id="paint32_linear_518_1804" x1="6.55578" y1="85.3254" x2="17.867" y2="85.3254" gradientUnits="userSpaceOnUse">
<stop stop-color="#6DD0E7"/>
<stop offset="1" stop-color="#01A7DB"/>
</linearGradient>
<linearGradient id="paint33_linear_518_1804" x1="-0.882149" y1="20.7867" x2="13.9936" y2="20.7867" gradientUnits="userSpaceOnUse">
<stop stop-color="#F8B54A"/>
<stop offset="1" stop-color="#F8A629"/>
</linearGradient>
<linearGradient id="paint34_linear_518_1804" x1="8.19038" y1="269.751" x2="38.9402" y2="286.239" gradientUnits="userSpaceOnUse">
<stop stop-color="#F71873"/>
<stop offset="1" stop-color="#C6211B"/>
</linearGradient>
<linearGradient id="paint35_linear_518_1804" x1="63.8969" y1="226.567" x2="55.9686" y2="248.677" gradientUnits="userSpaceOnUse">
<stop stop-color="#F44274"/>
<stop offset="1" stop-color="#E51F9A"/>
</linearGradient>
<linearGradient id="paint36_linear_518_1804" x1="31.7085" y1="248.125" x2="35.5994" y2="281.736" gradientUnits="userSpaceOnUse">
<stop stop-color="#F44274"/>
<stop offset="1" stop-color="#E51F9A"/>
</linearGradient>
<linearGradient id="paint37_linear_518_1804" x1="296.087" y1="42.8756" x2="371.523" y2="-10.824" gradientUnits="userSpaceOnUse">
<stop stop-color="#B5188D"/>
<stop offset="1" stop-color="#4E69AE"/>
</linearGradient>
<linearGradient id="paint38_linear_518_1804" x1="42.3731" y1="-373.796" x2="422.953" y2="151.7" gradientUnits="userSpaceOnUse">
<stop stop-color="white"/>
<stop offset="1" stop-color="white" stop-opacity="0"/>
</linearGradient>
<clipPath id="clip0_518_1804">
<rect x="0.666016" width="389.333" height="256" rx="24" fill="white"/>
</clipPath>
<clipPath id="clip1_518_1804">
<rect width="597.544" height="576.512" fill="white" transform="translate(-104 -102)"/>
</clipPath>
</defs>
</svg>
