<svg width="145" height="20" viewBox="0 0 145 20" fill="none" xmlns="http://www.w3.org/2000/svg">
<path d="M0 19.2284V15.998L13.383 2.35868L16.4082 3.48675H0.102551V0H18.1003V3.20473L4.69173 16.8953L2.1023 15.7416H18.1772V19.2284H0Z" fill="white"/>
<path d="M37.0984 7.94773V11.2807H23.3308V7.94773H37.0984ZM26.2536 9.61419L24.9717 17.767L23.0745 15.6135H37.8931V19.2284H20.5876L22.0746 9.61419L20.5876 0H37.765V3.61494H23.0745L24.9717 1.46136L26.2536 9.61419Z" fill="white"/>
<path d="M44.2327 8.5374H51.642C52.6163 8.5374 53.3854 8.31521 53.9494 7.87082C54.5306 7.40934 54.8211 6.77694 54.8211 5.97362C54.8211 5.1703 54.5306 4.54645 53.9494 4.10206C53.3854 3.65767 52.6163 3.43547 51.642 3.43547H43.5918L45.5659 1.20498V19.2284H41.2074V0H52.1548C53.5563 0 54.7869 0.256379 55.8466 0.769136C56.9063 1.2648 57.7353 1.95702 58.3335 2.8458C58.9317 3.73458 59.2308 4.77719 59.2308 5.97362C59.2308 7.15296 58.9317 8.18702 58.3335 9.0758C57.7353 9.96458 56.9063 10.6653 55.8466 11.1781C54.7869 11.6738 53.5563 11.9216 52.1548 11.9216H44.2327V8.5374ZM47.5656 10.2295H52.5394L59.7949 19.2284H54.6929L47.5656 10.2295Z" fill="white"/>
<path fill-rule="evenodd" clip-rule="evenodd" d="M73.4655 0.000338406C73.4285 0.000112802 73.3915 0 73.3544 0C71.0931 0 69.1081 0.418597 67.3992 1.25579C65.7076 2.09298 64.3871 3.26335 63.4377 4.76688C62.4884 6.25332 62.0137 7.99605 62.0137 9.99507C62.0137 11.9941 62.4884 13.7454 63.4377 15.2489C64.3871 16.7353 65.7076 17.8972 67.3992 18.7343C69.1081 19.5715 71.0931 19.9901 73.3544 19.9901C73.3899 19.9901 73.4254 19.99 73.4609 19.9898L73.4665 19.9999H89.4001L89.4051 19.9898L89.478 19.9901L89.511 19.9901C91.7722 19.9901 93.7572 19.5715 95.4661 18.7343C97.1577 17.8972 98.4782 16.7353 99.4276 15.2489C100.377 13.7454 100.852 11.9941 100.852 9.99507C100.852 7.99605 100.377 6.25332 99.4276 4.76688C98.4782 3.26335 97.1577 2.09298 95.4661 1.25579C93.7572 0.418597 91.7722 0 89.511 0C89.4737 0 89.4364 0.000113893 89.3993 0.000341678L89.3992 0H73.4656L73.4655 0.000338406ZM73.4665 16.1162L73.4649 16.1197C73.4282 16.1201 73.3913 16.1202 73.3544 16.1202C71.9562 16.1202 70.7393 15.8725 69.7036 15.377C68.6679 14.8815 67.8653 14.1725 67.2956 13.2499C66.7433 12.3272 66.4671 11.2423 66.4671 9.99507C66.4671 8.74782 66.7433 7.66288 67.2956 6.74026C67.8653 5.81764 68.6679 5.10859 69.7036 4.61311C70.7393 4.11763 71.9562 3.86989 73.3544 3.86989C73.39 3.86989 73.4256 3.87004 73.461 3.87036L73.4656 3.88368H89.3992L89.4044 3.87036C89.4398 3.87004 89.4753 3.86989 89.511 3.86989C90.9091 3.86989 92.126 4.11763 93.1617 4.61311C94.1974 5.10859 95.0001 5.81764 95.5697 6.74026C96.122 7.66288 96.3982 8.74782 96.3982 9.99507C96.3982 11.2423 96.122 12.3272 95.5697 13.2499C95.0001 14.1725 94.1974 14.8815 93.1617 15.377C92.126 15.8725 90.9091 16.1202 89.511 16.1202C89.4745 16.1202 89.4382 16.1201 89.402 16.1198L89.4001 16.1162H73.4665ZM119.376 15.097V0.771729H123.606V20.0001H118.094L107.275 5.41678V20.0001H103.07V0.771729H108.711L119.376 15.097ZM132.32 12.0524H143.427V8.71946H132.32L131.639 4.38667H144.093V0.771729H126.916L128.403 10.3859L126.916 20.0001H144.222V16.3852H131.639L132.32 12.0524Z" fill="url(#paint0_linear_383_2205)"/>
<defs>
<linearGradient id="paint0_linear_383_2205" x1="99.8381" y1="28.6365" x2="122.162" y2="-14.5375" gradientUnits="userSpaceOnUse">
<stop offset="0.00721497" stop-color="#FF6B22"/>
<stop offset="0.9999" stop-color="#FD810F"/>
<stop offset="1" stop-color="#FF7E06"/>
</linearGradient>
</defs>
</svg>
