<svg width="48" height="48" viewBox="0 0 48 48" fill="none" xmlns="http://www.w3.org/2000/svg">
<rect width="48" height="48" fill="#353535"/>
<path fill-rule="evenodd" clip-rule="evenodd" d="M15.8338 14C15.8725 14 15.9111 14.0001 15.9497 14.0004L15.9499 14H32.5762L32.5763 14.0004C32.6151 14.0001 32.6539 14 32.6928 14C35.0524 14 37.1237 14.4368 38.9069 15.3104C40.6721 16.184 42.05 17.4052 43.0406 18.9741C44.0313 20.5252 44.5266 22.3437 44.5266 24.4296C44.5266 26.5156 44.0313 28.343 43.0406 29.9119C42.05 31.463 40.6721 32.6753 38.9069 33.5489C37.1237 34.4225 35.0524 34.8593 32.6928 34.8593C32.6559 34.8593 32.6191 34.8592 32.5823 34.8589L32.5771 34.8695H15.9508L15.9449 34.8589C15.9079 34.8592 15.8709 34.8593 15.8338 34.8593C13.4742 34.8593 11.4029 34.4225 9.61969 33.5489C7.85453 32.6753 6.47662 31.463 5.48597 29.9119C4.49532 28.343 4 26.5156 4 24.4296C4 22.3437 4.49532 20.5252 5.48597 18.9741C6.47662 17.4052 7.85453 16.184 9.61969 15.3104C11.4029 14.4368 13.4742 14 15.8338 14ZM15.9491 30.8206L15.9508 30.8169H32.5771L32.5791 30.8206C32.6169 30.821 32.6548 30.8211 32.6928 30.8211C34.1518 30.8211 35.4216 30.5626 36.5023 30.0456C37.583 29.5286 38.4206 28.7887 39.015 27.826C39.5913 26.8632 39.8795 25.7311 39.8795 24.4296C39.8795 23.1282 39.5913 21.9961 39.015 21.0333C38.4206 20.0706 37.583 19.3307 36.5023 18.8137C35.4216 18.2967 34.1518 18.0381 32.6928 18.0381C32.6556 18.0381 32.6185 18.0383 32.5816 18.0386L32.5762 18.0525H15.9499L15.9451 18.0386C15.9081 18.0383 15.871 18.0381 15.8338 18.0381C14.3748 18.0381 13.105 18.2967 12.0243 18.8137C10.9436 19.3307 10.106 20.0706 9.51161 21.0333C8.93524 21.9961 8.64705 23.1282 8.64705 24.4296C8.64705 25.7311 8.93524 26.8632 9.51161 27.826C10.106 28.7887 10.9436 29.5286 12.0243 30.0456C13.105 30.5626 14.3748 30.8211 15.8338 30.8211C15.8723 30.8211 15.9108 30.821 15.9491 30.8206Z" fill="url(#paint0_linear_643_1536)"/>
<defs>
<linearGradient id="paint0_linear_643_1536" x1="22.6465" y1="43.8813" x2="51.0781" y2="17.903" gradientUnits="userSpaceOnUse">
<stop offset="0.00721497" stop-color="#FF6B22"/>
<stop offset="0.9999" stop-color="#FD810F"/>
<stop offset="1" stop-color="#FF7E06"/>
</linearGradient>
</defs>
</svg>
